<svg xmlns="http://www.w3.org/2000/svg" xmlns:xlink="http://www.w3.org/1999/xlink" width="40" height="40" viewBox="0 0 40 40"><defs><style>.a{fill:#222;}.b{fill:#fff;}.c,.e{fill:none;}.c{stroke:#6a88ff;}.d{stroke:none;}.f{filter:url(#a);}</style><filter id="a"><feOffset input="SourceAlpha"/><feGaussianBlur stdDeviation="8" result="b"/><feFlood flood-color="#6a88ff" result="c"/><feComposite operator="out" in="SourceGraphic" in2="b"/><feComposite operator="in" in="c"/><feComposite operator="in" in2="SourceGraphic"/></filter></defs><g data-type="innerShadowGroup"><path class="a" d="M0,0H40a0,0,0,0,1,0,0V24A16,16,0,0,1,24,40H16A16,16,0,0,1,0,24V0A0,0,0,0,1,0,0Z"/><g class="f" transform="matrix(1, 0, 0, 1, 0, 0)"><path class="b" d="M0,0H40a0,0,0,0,1,0,0V24A16,16,0,0,1,24,40H16A16,16,0,0,1,0,24V0A0,0,0,0,1,0,0Z"/></g><g class="c"><path class="d" d="M0,0H40a0,0,0,0,1,0,0V24A16,16,0,0,1,24,40H16A16,16,0,0,1,0,24V0A0,0,0,0,1,0,0Z"/><path class="e" d="M.5.5h39a0,0,0,0,1,0,0V24A15.5,15.5,0,0,1,24,39.5H16A15.5,15.5,0,0,1,.5,24V.5A0,0,0,0,1,.5.5Z"/></g></g></svg>