<svg xmlns="http://www.w3.org/2000/svg" xmlns:xlink="http://www.w3.org/1999/xlink" width="24" height="24" viewBox="0 0 24 24"><defs><style>.a{fill:#777;}.b{clip-path:url(#a);}</style><clipPath id="a"><rect class="a" width="24" height="24" transform="translate(44)"/></clipPath></defs><g transform="translate(-44)"><g class="b"><path class="a" d="M56,2.2a1,1,0,0,1,.371.072l8,3.2A1,1,0,0,1,65,6.4V17.6a1,1,0,0,1-.629.928l-8,3.2a1,1,0,0,1-.743,0l-8-3.2A1,1,0,0,1,47,17.6V6.4a1,1,0,0,1,.629-.928l8-3.2A1,1,0,0,1,56,2.2Zm7,4.877-7-2.8-7,2.8v9.846l7,2.8,7-2.8Z"/></g></g><path class="a" d="M2.321,1.428a.5.5,0,0,1-.185-.036L-.186.464a.5.5,0,0,1-.279-.65.5.5,0,0,1,.65-.279L2.507.464a.5.5,0,0,1-.186.964Z" transform="translate(17.679 16.672)"/><path class="a" d="M54.107,15.658a.5.5,0,0,1-.186-.964l1.893-.757a.5.5,0,0,1,.371,0l1.893.757a.5.5,0,1,1-.371.929L56,14.939l-1.708.683A.5.5,0,0,1,54.107,15.658Z" transform="translate(-44)"/><path class="a" d="M0,1.428a.5.5,0,0,1-.464-.315A.5.5,0,0,1-.186.464L2.135-.464a.5.5,0,0,1,.65.279.5.5,0,0,1-.279.65L.186,1.392A.5.5,0,0,1,0,1.428Z" transform="translate(4 16.672)"/><path class="a" d="M56,10.1a.5.5,0,0,1-.186-.036l-8-3.2a.5.5,0,1,1,.371-.928L56,9.061l7.814-3.126a.5.5,0,1,1,.371.928l-8,3.2A.5.5,0,0,1,56,10.1Z" transform="translate(-44)"/><path class="a" d="M0,3a.5.5,0,0,1-.5-.5V0A.5.5,0,0,1,0-.5.5.5,0,0,1,.5,0V2.5A.5.5,0,0,1,0,3Z" transform="translate(12 3.2)"/><path class="a" d="M0,3a.5.5,0,0,1-.5-.5V0A.5.5,0,0,1,0-.5.5.5,0,0,1,.5,0V2.5A.5.5,0,0,1,0,3Z" transform="translate(12 11.9)"/><path class="a" d="M0,11.7a.5.5,0,0,1-.5-.5V0A.5.5,0,0,1,0-.5.5.5,0,0,1,.5,0V11.2A.5.5,0,0,1,0,11.7Z" transform="translate(12 9.6)"/><path class="a" d="M56,14.4V3.2l8,3.2V17.6Z" transform="translate(-44)"/><path class="a" d="M64,18.1a.5.5,0,0,1-.186-.036l-8-3.2A.5.5,0,0,1,55.5,14.4V3.2a.5.5,0,0,1,.686-.464l8,3.2A.5.5,0,0,1,64.5,6.4V17.6a.5.5,0,0,1-.5.5Zm-7.5-4.039,7,2.8V6.739l-7-2.8Z" transform="translate(-44)"/></svg>