<svg xmlns="http://www.w3.org/2000/svg" xmlns:xlink="http://www.w3.org/1999/xlink" width="24" height="24" viewBox="0 0 24 24"><defs><style>.a{fill:#777;}.b{clip-path:url(#a);}</style><clipPath id="a"><rect class="a" width="24" height="24" transform="translate(220)"/></clipPath></defs><g transform="translate(-220)"><g class="b"><path class="a" d="M232,2.2a1,1,0,0,1,.371.072l8,3.2A1,1,0,0,1,241,6.4V17.6a1,1,0,0,1-.629.928l-8,3.2a1,1,0,0,1-.743,0l-8-3.2A1,1,0,0,1,223,17.6V6.4a1,1,0,0,1,.629-.928l8-3.2A1,1,0,0,1,232,2.2Zm7,4.877-7-2.8-7,2.8v9.846l7,2.8,7-2.8Z"/></g></g><path class="a" d="M2.321,1.428a.5.5,0,0,1-.185-.036L-.186.464a.5.5,0,0,1-.279-.65.5.5,0,0,1,.65-.279L2.507.464a.5.5,0,0,1-.186.964Z" transform="translate(17.679 16.672)"/><path class="a" d="M230.107,15.658a.5.5,0,0,1-.186-.964l1.893-.757a.5.5,0,0,1,.371,0l1.893.757a.5.5,0,1,1-.371.929L232,14.939l-1.708.683A.5.5,0,0,1,230.107,15.658Z" transform="translate(-220)"/><path class="a" d="M0,1.428a.5.5,0,0,1-.464-.315A.5.5,0,0,1-.186.464L2.135-.464a.5.5,0,0,1,.65.279.5.5,0,0,1-.279.65L.186,1.392A.5.5,0,0,1,0,1.428Z" transform="translate(4 16.672)"/><path class="a" d="M232,10.1a.5.5,0,0,1-.186-.036l-8-3.2a.5.5,0,0,1,.371-.928L232,9.061l7.814-3.126a.5.5,0,0,1,.371.928l-8,3.2A.5.5,0,0,1,232,10.1Z" transform="translate(-220)"/><path class="a" d="M0,3a.5.5,0,0,1-.5-.5V0A.5.5,0,0,1,0-.5.5.5,0,0,1,.5,0V2.5A.5.5,0,0,1,0,3Z" transform="translate(12 3.2)"/><path class="a" d="M0,3a.5.5,0,0,1-.5-.5V0A.5.5,0,0,1,0-.5.5.5,0,0,1,.5,0V2.5A.5.5,0,0,1,0,3Z" transform="translate(12 11.9)"/><path class="a" d="M0,11.7a.5.5,0,0,1-.5-.5V0A.5.5,0,0,1,0-.5.5.5,0,0,1,.5,0V11.2A.5.5,0,0,1,0,11.7Z" transform="translate(12 9.6)"/><path class="a" d="M224,17.6l8-3.2,8,3.2-8,3.2Z" transform="translate(-220)"/><path class="a" d="M232,13.9a.5.5,0,0,1,.186.036l8,3.2a.5.5,0,0,1,0,.928l-8,3.2a.5.5,0,0,1-.371,0l-8-3.2a.5.5,0,0,1,0-.928l8-3.2A.5.5,0,0,1,232,13.9Zm6.654,3.7L232,14.939,225.346,17.6,232,20.261Z" transform="translate(-220)"/></svg>