<svg xmlns="http://www.w3.org/2000/svg" xmlns:xlink="http://www.w3.org/1999/xlink" width="24" height="24" viewBox="0 0 24 24"><defs><style>.a,.c{fill:none;}.b{clip-path:url(#a);}.c{stroke:#555;stroke-linecap:round;stroke-linejoin:round;stroke-width:2px;}</style><clipPath id="a"><rect class="a" width="24" height="24" transform="translate(0 0)"/></clipPath></defs><g class="b"><g transform="translate(-132)"><path class="c" d="M151.832,8.691a8.5,8.5,0,0,1-11.141,11.141"/><path class="c" d="M137.99,18.01A8.5,8.5,0,1,1,150.01,5.99"/></g><path class="c" d="M147.657,4.343C149.616,3.407,151.219,3.219,152,4s.593,2.384-.343,4.343a24.927,24.927,0,0,1-4.829,6.485,24.927,24.927,0,0,1-6.485,4.829c-1.959.936-3.562,1.124-4.343.343s-.593-2.384.343-4.343" transform="translate(-132)"/><rect class="a" width="24" height="24"/></g></svg>