<svg xmlns="http://www.w3.org/2000/svg" xmlns:xlink="http://www.w3.org/1999/xlink" width="16" height="16" viewBox="0 0 16 16"><defs><style>.a{fill:none;}.b{clip-path:url(#a);}.c{fill:#777;}</style><clipPath id="a"><rect class="a" width="16" height="16" transform="translate(4 4)"/></clipPath></defs><g class="b" transform="translate(-4 -4)"><path class="c" d="M-1492,8311a8.009,8.009,0,0,1-8-8,8.008,8.008,0,0,1,8-8,8.009,8.009,0,0,1,8,8A8.01,8.01,0,0,1-1492,8311Zm-4-9a1,1,0,0,0-1,1,1,1,0,0,0,1,1h3v3a1,1,0,0,0,1,1,1,1,0,0,0,1-1v-3h3a1,1,0,0,0,1-1,1,1,0,0,0-1-1h-3v-3a1,1,0,0,0-1-1,1,1,0,0,0-1,1v3Z" transform="translate(1504 -8291)"/></g></svg>