<svg xmlns="http://www.w3.org/2000/svg" xmlns:xlink="http://www.w3.org/1999/xlink" width="24" height="24" viewBox="0 0 24 24"><defs><style>.a{fill:#555;}.b{clip-path:url(#a);}</style><clipPath id="a"><rect class="a" width="24" height="24" transform="translate(0 0)"/></clipPath></defs><g class="b" transform="translate(0 0)"><path class="a" d="M7131,6176a10,10,0,1,1,10,10A10.01,10.01,0,0,1,7131,6176Zm2,0a8,8,0,1,0,8-8A8.01,8.01,0,0,0,7133,6176Zm7,5v-4h-4a1,1,0,1,1,0-2h4v-4a1,1,0,0,1,2,0v4h4a1,1,0,1,1,0,2h-4v4a1,1,0,0,1-2,0Z" transform="translate(-7129 -6164)"/></g></svg>