<svg xmlns="http://www.w3.org/2000/svg" xmlns:xlink="http://www.w3.org/1999/xlink" width="40" height="40" viewBox="0 0 40 40"><defs><style>.a{fill:none;}.b{clip-path:url(#a);}.c{fill:#ff1aa8;stroke:rgba(0,0,0,0);stroke-miterlimit:10;}</style><clipPath id="a"><rect class="a" width="40" height="40" transform="translate(60 0)"/></clipPath></defs><g class="b" transform="translate(-60 0)"><path class="c" d="M6201,5825a17,17,0,1,1,12.02-4.979A16.887,16.887,0,0,1,6201,5825Zm0-14.171h0l5.584,5.584a2,2,0,0,0,2.829-2.828l-5.586-5.585,5.586-5.586a2,2,0,1,0-2.829-2.828l-5.585,5.585-5.587-5.585a2,2,0,1,0-2.828,2.828l5.587,5.586-5.587,5.585a2,2,0,1,0,2.828,2.828l5.586-5.584Z" transform="translate(-6121 -5788)"/></g></svg>