<svg xmlns="http://www.w3.org/2000/svg" xmlns:xlink="http://www.w3.org/1999/xlink" width="16" height="16" viewBox="0 0 16 16"><defs><style>.a{fill:none;}.b{clip-path:url(#a);}.c{fill:#fff;}</style><clipPath id="a"><rect class="a" width="16" height="16"/></clipPath></defs><g class="b"><path class="c" d="M6488.147,6114.89a.5.5,0,0,1-.121-.513l.943-2.829a.482.482,0,0,1,.121-.194l6.625-6.627a.5.5,0,0,1,.707,0l1.886,1.886a.5.5,0,0,1,0,.708l-6.625,6.625a.524.524,0,0,1-.2.121l-2.829.943a.49.49,0,0,1-.158.026A.5.5,0,0,1,6488.147,6114.89Zm10.869-8.983-1.886-1.886a.5.5,0,0,1,0-.707l.959-.961a.5.5,0,0,1,.708,0l1.884,1.886a.5.5,0,0,1,0,.708l-.959.959a.5.5,0,0,1-.354.147A.494.494,0,0,1,6499.016,6105.906Z" transform="translate(-6486.328 -6100.707)"/></g></svg>