<svg xmlns="http://www.w3.org/2000/svg" xmlns:xlink="http://www.w3.org/1999/xlink" width="16" height="16" viewBox="0 0 16 16"><defs><style>.a{fill:#555;}.b{clip-path:url(#a);}</style><clipPath id="a"><rect class="a" width="16" height="16"/></clipPath></defs><g class="b"><path class="a" d="M13,2.5H10.25V1.936A1.437,1.437,0,0,0,8.814.5H7.186A1.437,1.437,0,0,0,5.75,1.936V2.5H3A.75.75,0,0,0,3,4h.5v9.5a1,1,0,0,0,1,1h7a1,1,0,0,0,1-1V4H13a.75.75,0,0,0,0-1.5m-6.25,9a.5.5,0,0,1-1,0v-6a.5.5,0,0,1,1,0Zm0-9.564A.436.436,0,0,1,7.186,1.5H8.814a.436.436,0,0,1,.436.436V2.5H6.75Zm3.5,9.564a.5.5,0,0,1-1,0v-6a.5.5,0,0,1,1,0Z"/></g></svg>