<svg xmlns="http://www.w3.org/2000/svg" xmlns:xlink="http://www.w3.org/1999/xlink" width="40" height="40" viewBox="0 0 40 40"><defs><style>.a,.e{fill:none;}.b{clip-path:url(#a);}.c{fill:#ddd;}.d{fill:#fff;}.e{stroke:#fff;stroke-miterlimit:10;}.f{stroke:none;}</style><clipPath id="a"><rect class="a" width="40" height="40"/></clipPath></defs><g class="b"><path class="c" d="M6684,5811h-7a1,1,0,0,1-1-1v-18a1,1,0,0,1,1-1h18a1,1,0,0,1,1,1v11.048a1,1,0,0,0-.31-.049H6695v-2h-4.249v2h-.824a.99.99,0,0,0-.893.553l-.449.894a.989.989,0,0,1-.893.553H6686v-4h-4.749v4.75h3.187A1.979,1.979,0,0,0,6684,5807v4Zm-2.749-5.251H6677V5810h4.25v-4.25Zm0-9.5H6677V5801h4.25v-4.75Zm4.749,0V5801h4.751v-4.75Zm0-4.249h-4.749v4.249H6686Zm9,0h-4.249v4.249H6695Z" transform="translate(-6668.999 -5784)"/><path class="d" d="M20.927,19a1,1,0,0,0-.894.553l-.448.894a1,1,0,0,1-.894.553H17a2,2,0,0,0-2,2v8a2,2,0,0,0,2,2H31a2,2,0,0,0,2-2V23a2,2,0,0,0-2-2H28.927a1,1,0,0,1-.894-.553l-.448-.894A1,1,0,0,0,26.691,19H20.927m0-1h5.764a1.988,1.988,0,0,1,1.789,1.107l.447.892H31a3,3,0,0,1,3,3v8a3,3,0,0,1-3,3H17a3,3,0,0,1-3-3V23a3,3,0,0,1,3-3h1.691l.448-.9A1.987,1.987,0,0,1,20.927,18Z"/><g class="e" transform="translate(20.25 22.75)"><circle class="f" cx="3.75" cy="3.75" r="3.75"/><circle class="a" cx="3.75" cy="3.75" r="3.25"/></g><circle class="d" cx="0.75" cy="0.75" r="0.75" transform="translate(29.559 22.75)"/></g></svg>