<svg xmlns="http://www.w3.org/2000/svg" xmlns:xlink="http://www.w3.org/1999/xlink" width="16" height="16" viewBox="0 0 16 16"><defs><style>.a{fill:#fff;}.b{clip-path:url(#a);}</style><clipPath id="a"><rect class="a" width="16" height="16"/></clipPath></defs><g class="b"><path class="a" d="M5,14.5a.5.5,0,0,0,.5.5h5a.5.5,0,0,0,.5-.5V12.778H5Z"/><path class="a" d="M4,13.146A10.112,10.112,0,0,1,2.6,12.4l.623-.622h-3A11.007,11.007,0,0,0,4,14.239Z"/><path class="a" d="M12,13.146v1.093a11.007,11.007,0,0,0,3.778-2.46h-3l.623.622a10.112,10.112,0,0,1-1.4.745"/><path class="a" d="M8,1A3,3,0,0,0,5,4v7.778h6V4A3,3,0,0,0,8,1M8,5A1,1,0,1,1,9,4,1,1,0,0,1,8,5"/></g></svg>