<svg xmlns="http://www.w3.org/2000/svg" xmlns:xlink="http://www.w3.org/1999/xlink" width="24" height="24" viewBox="0 0 24 24"><defs><style>.a{fill:none;}.b{clip-path:url(#a);}.c{fill:#777;}</style><clipPath id="a"><rect class="a" width="24" height="24"/></clipPath></defs><g class="b"><path class="c" d="M7396,6184a1,1,0,0,1-1-1v-16a1,1,0,0,1,1-1h14a1,1,0,1,1,0,2h-13v14h13a1,1,0,1,1,0,2Zm11.2-4.388-3.875-3.876a1,1,0,0,1-.117-1.346l0,0,.01-.012.007-.008,0-.006q.029-.034.062-.067l3.906-3.905a1,1,0,0,1,1.414,1.414l-2.2,2.2h6.451a1,1,0,0,1,0,2h-6.45l2.2,2.2a1,1,0,1,1-1.414,1.414Z" transform="translate(-7392 -6163)"/></g></svg>