<svg xmlns="http://www.w3.org/2000/svg" xmlns:xlink="http://www.w3.org/1999/xlink" width="40" height="40" viewBox="0 0 40 40"><defs><style>.a{fill:none;}.b{clip-path:url(#a);}.c{fill:#6a88ff;stroke:rgba(0,0,0,0);stroke-miterlimit:10;}</style><clipPath id="a"><rect class="a" width="40" height="40" transform="translate(120 0)"/></clipPath></defs><g class="b" transform="translate(-120 0)"><path class="c" d="M6201,5825a17,17,0,1,1,12.02-4.979A16.887,16.887,0,0,1,6201,5825Zm0-22a2,2,0,0,0-2,2v12a2,2,0,0,0,4,0v-12A2,2,0,0,0,6201,5803Zm0-6a2,2,0,1,0,2,2A2,2,0,0,0,6201,5797Z" transform="translate(-6061 -5788)"/></g></svg>