<svg xmlns="http://www.w3.org/2000/svg" xmlns:xlink="http://www.w3.org/1999/xlink" width="63" height="74" viewBox="0 0 63 74"><defs><style>.a{fill:rgba(255,0,0,0.2);}.b{clip-path:url(#a);}.c,.d{fill:#333;}.c,.e{font-size:12px;font-family:Montserrat-Bold, Montserrat;font-weight:700;}.e,.f{fill:#555;}.g{fill:#87f;}</style><clipPath id="a"><rect class="a" width="63" height="74" transform="translate(225 143)"/></clipPath></defs><g class="b" transform="translate(-225 -143)"><text class="c" transform="translate(254 185)"><tspan x="0" y="0">/</tspan></text><text class="c" transform="translate(255 211)"><tspan x="0" y="0">+</tspan></text><g transform="translate(225 143)"><rect class="d" width="54" height="22" rx="11"/><text class="e" transform="translate(8 15)"><tspan x="0" y="0">Space</tspan></text></g><g transform="translate(225 169)"><rect class="d" width="27" height="22" rx="11"/><path class="f" d="M360-2554l6-6v12Zm6,2v-4h6v4Z" transform="translate(-353 2565)"/></g><g transform="translate(261 169)"><rect class="d" width="27" height="22" rx="11"/><path class="f" d="M360-2554l6-6v12Zm6,2v-4h6v4Z" transform="translate(380 -2542.999) rotate(180)"/></g><path class="g" d="M-31.63-36.273-44-49v18l5.123-5.273Zm0,0" transform="translate(308 246)"/><g transform="translate(225 195)"><rect class="d" width="28" height="22" rx="11"/><g transform="translate(-2291.816 -619.639)"><path class="f" d="M2303.346,625.639h-2.633a.881.881,0,0,0-.638.252.868.868,0,0,0,0,1.237.889.889,0,0,0,.638.248h2.24a.367.367,0,0,1,.19.047.308.308,0,0,1,.124.15l3.6,7.645a1.664,1.664,0,0,0,.565.7,1.507,1.507,0,0,0,.835.215h2.648a.877.877,0,0,0,.635-.255.824.824,0,0,0,.263-.613.836.836,0,0,0-.259-.624.881.881,0,0,0-.638-.252h-2.24a.337.337,0,0,1-.328-.19l-3.6-7.645a1.616,1.616,0,0,0-.576-.682A1.492,1.492,0,0,0,2303.346,625.639Zm7.572,0h-3.348a.887.887,0,0,0-.638.248.814.814,0,0,0-.259.613.829.829,0,0,0,.255.62.884.884,0,0,0,.642.248h3.348a.874.874,0,0,0,.635-.248.829.829,0,0,0,.255-.62.821.821,0,0,0-.255-.613A.874.874,0,0,0,2310.919,625.639Z"/></g></g></g></svg>