<svg xmlns="http://www.w3.org/2000/svg" xmlns:xlink="http://www.w3.org/1999/xlink" width="63" height="74" viewBox="0 0 63 74"><defs><style>.a{fill:rgba(255,0,0,0.2);}.b{clip-path:url(#a);}.c,.d{fill:#333;}.c,.e{font-size:12px;font-family:Montserrat-Bold, Montserrat;font-weight:700;}.e,.f{fill:#555;}.g{fill:#87f;}</style><clipPath id="a"><rect class="a" width="63" height="74" transform="translate(225 143)"/></clipPath></defs><g class="b" transform="translate(-225 -143)"><text class="c" transform="translate(254 185)"><tspan x="0" y="0">/</tspan></text><text class="c" transform="translate(261 211)"><tspan x="0" y="0">+</tspan></text><g transform="translate(225 143)"><rect class="d" width="54" height="22" rx="11"/><text class="e" transform="translate(8 15)"><tspan x="0" y="0">Space</tspan></text></g><g transform="translate(225 169)"><rect class="d" width="27" height="22" rx="11"/><path class="f" d="M360-2554l6-6v12Zm6,2v-4h6v4Z" transform="translate(-353 2565)"/></g><g transform="translate(261 169)"><rect class="d" width="27" height="22" rx="11"/><path class="f" d="M360-2554l6-6v12Zm6,2v-4h6v4Z" transform="translate(380 -2542.999) rotate(180)"/></g><g transform="translate(225 195)"><rect class="d" width="34" height="22" rx="11"/><text class="e" transform="translate(8 15)"><tspan x="0" y="0">Alt</tspan></text></g><path class="g" d="M-31.63-36.273-44-49v18l5.123-5.273Zm0,0" transform="translate(314 246)"/></g></svg>