<svg xmlns="http://www.w3.org/2000/svg" xmlns:xlink="http://www.w3.org/1999/xlink" width="64" height="64" viewBox="0 0 64 64"><defs><style>.a{fill:#777;}.b{clip-path:url(#a);}.c{fill:none;}</style><clipPath id="a"><rect class="a" width="64" height="64"/></clipPath></defs><g class="b"><path class="a" d="M32,.487a4.985,4.985,0,0,1,1.857.357l24,9.6A4.978,4.978,0,0,1,61,15.087V48.871a4.978,4.978,0,0,1-3.142,4.642l-24,9.6a5.007,5.007,0,0,1-3.714,0l-24-9.6A4.978,4.978,0,0,1,3,48.871V15.087a4.978,4.978,0,0,1,3.142-4.642l24-9.6A4.986,4.986,0,0,1,32,.487Zm0,60.983a2.993,2.993,0,0,0,1.115-.214l24-9.6A2.987,2.987,0,0,0,59,48.871V15.087A2.987,2.987,0,0,0,57.114,12.3l-24-9.6a3.007,3.007,0,0,0-2.23,0l-24,9.6A2.987,2.987,0,0,0,5,15.087V48.871a2.987,2.987,0,0,0,1.886,2.786l24,9.6A2.993,2.993,0,0,0,32,61.471Z"/><path class="c" d="M8.642,53.436l22.615,9.046a2,2,0,0,0,1.486,0l22.615-9.046a2,2,0,0,0,0-3.714L33.486,40.973a4.007,4.007,0,0,0-2.972,0L8.642,49.722A2,2,0,0,0,8.642,53.436Z"/><path class="c" d="M29.257,2.276l-24,9.6A2,2,0,0,0,4,13.733V48.625a2,2,0,0,0,2.743,1.857l22.743-9.1A4,4,0,0,0,32,37.671V4.133A2,2,0,0,0,29.257,2.276Z"/><path class="a" d="M32,4.133V37.671a4,4,0,0,0,2.514,3.714l22.743,9.1A2,2,0,0,0,60,48.625V13.733a2,2,0,0,0-1.257-1.857l-24-9.6A2,2,0,0,0,32,4.133Z"/></g></svg>