<svg xmlns="http://www.w3.org/2000/svg" xmlns:xlink="http://www.w3.org/1999/xlink" width="16" height="16" viewBox="0 0 16 16"><defs><style>.a{fill:none;}.b{clip-path:url(#a);}.c{fill:#111;}</style><clipPath id="a"><rect class="a" width="16" height="16"/></clipPath></defs><g class="b"><rect class="c" width="10" height="6" transform="translate(3 7.5)"/><path class="c" d="M0-.5H10a.5.5,0,0,1,.5.5V6a.5.5,0,0,1-.5.5H0A.5.5,0,0,1-.5,6V0A.5.5,0,0,1,0-.5ZM9.5.5H.5v5h9Z" transform="translate(3 7.5)"/><path class="c" d="M8,12.75A3.754,3.754,0,0,1,4.25,9V5a3.75,3.75,0,0,1,7.5,0,.75.75,0,0,1-1.5,0,2.25,2.25,0,0,0-4.5,0V9A2.253,2.253,0,0,0,8,11.25a.75.75,0,0,1,0,1.5Z" transform="translate(0 -0.5)"/></g></svg>