<svg xmlns="http://www.w3.org/2000/svg" width="48" height="80" viewBox="0 0 48 80"><defs><style>.a{fill:#87f;}.a,.b{stroke:rgba(0,0,0,0);}.a,.b,.d,.e,.f,.g,.h{stroke-miterlimit:10;}.b{fill:#6a88ff;}.c,.d,.f,.g{fill:none;}.d,.e{stroke:#555;}.d{stroke-width:6px;}.e{fill:#3e75ff;stroke-width:3px;}.e,.f,.g,.h{stroke-linecap:round;}.f,.g,.h{stroke:#333;}.f,.h{stroke-width:2px;}.g{stroke-width:4px;}.h{fill:#bbb;}.i{stroke:none;}</style></defs><path class="a" d="M6579-3983.818h-15v-16a18,18,0,0,1,4.307-11.684,18.013,18.013,0,0,1,10.692-6.067v5.427a7.04,7.04,0,0,0-2.887,2.539,6.967,6.967,0,0,0-1.114,3.785v8a6.966,6.966,0,0,0,1.114,3.784,7.038,7.038,0,0,0,2.887,2.54v7.675Z" transform="translate(-6558 4023.818)"/><path class="b" d="M15,33.751h0A18,18,0,0,1,0,16V0H15V7.676A7.009,7.009,0,0,0,11,14v8a7.009,7.009,0,0,0,4,6.324V33.75Z" transform="translate(42 40) rotate(180)"/><path class="c" d="M0,0H0A18,18,0,0,1,18,18V34a0,0,0,0,1,0,0H0a0,0,0,0,1,0,0V0A0,0,0,0,1,0,0Z" transform="translate(24 6)"/><line class="d" y2="38.182" transform="translate(24 1.818)"/><g class="e" transform="translate(20 14)"><rect class="i" width="8" height="16" rx="4"/><rect class="c" x="-1.5" y="-1.5" width="11" height="19" rx="5.5"/></g><line class="f" y2="38.182" transform="translate(24 1.818)"/><g class="g"><rect class="i" width="48" height="80" rx="24"/><rect class="c" x="2" y="2" width="44" height="76" rx="22"/></g><rect class="h" width="8" height="16" rx="4" transform="translate(20 14)"/></svg>