<svg xmlns="http://www.w3.org/2000/svg" xmlns:xlink="http://www.w3.org/1999/xlink" width="24" height="24" viewBox="0 0 24 24"><defs><style>.a{fill:none;}.b{clip-path:url(#a);}.c{fill:#fff;stroke:#000;stroke-linecap:round;stroke-linejoin:round;stroke-width:0.75px;}</style><clipPath id="a"><rect class="a" width="24" height="24" transform="translate(-44)"/></clipPath></defs><g class="b" transform="translate(44)"><path class="c" d="M-33.109,1.925a1.55,1.55,0,0,1,1.55-1.55h0a1.55,1.55,0,0,1,1.55,1.55v.767A1.543,1.543,0,0,1-28.466,1.15h.015a1.542,1.542,0,0,1,1.542,1.542V5.807a1.55,1.55,0,0,1,1.55-1.55h0a1.55,1.55,0,0,1,1.55,1.55V16.262a7.349,7.349,0,0,1-.578,2.866,7.4,7.4,0,0,1-1.578,2.341,7.361,7.361,0,0,1-2.34,1.577,7.335,7.335,0,0,1-2.866.579,7.332,7.332,0,0,1-2.866-.579,7.361,7.361,0,0,1-2.34-1.577,7.4,7.4,0,0,1-1.578-2.341L-41.279,12a1.55,1.55,0,0,1,.75-2.06h0a1.55,1.55,0,0,1,2.06.75l1.522,3.264a.387.387,0,0,0,.738-.164V2.692A1.543,1.543,0,0,1-34.666,1.15h.015a1.542,1.542,0,0,1,1.542,1.542Z"/><line class="c" y2="8.533" transform="translate(-30.009 2.692)"/><line class="c" y2="6.193" transform="translate(-26.909 5.807)"/><line class="c" y2="8.533" transform="translate(-33.109 2.692)"/></g></svg>