<svg xmlns="http://www.w3.org/2000/svg" xmlns:xlink="http://www.w3.org/1999/xlink" width="24" height="24" viewBox="0 0 24 24"><defs><style>.a{fill:none;}.b{clip-path:url(#a);}.c{fill:#fff;stroke-linejoin:round;}.d,.e{stroke:none;}.e{fill:#000;}</style><clipPath id="a"><rect class="a" width="24" height="24" transform="translate(-88 0)"/></clipPath></defs><g class="b" transform="translate(88)"><g class="c"><path class="d" d="M -75.92900085449219 23.625 C -77.07316589355469 23.625 -78.10044097900391 22.81934928894043 -78.89972686767578 21.2951602935791 C -79.54860687255859 20.05779266357422 -80.05204010009766 18.35622787475586 -80.36090087890625 16.36089897155762 C -82.35623168945312 16.05203819274902 -84.05779266357422 15.54860687255859 -85.29515838623047 14.89972972869873 C -86.81935119628906 14.10044002532959 -87.625 13.07316970825195 -87.625 11.92899990081787 C -87.625 10.78436946868896 -86.81890106201172 9.756799697875977 -85.29384613037109 8.957369804382324 C -84.05560302734375 8.308279037475586 -82.35273742675781 7.804739475250244 -80.35564422607422 7.49588680267334 C -80.3126220703125 7.222721576690674 -80.26187133789062 6.922824859619141 -80.20059967041016 6.618889808654785 L -80.19993591308594 6.615579605102539 L -80.19921112060547 6.612279415130615 C -79.83756256103516 4.971479415893555 -79.34636688232422 3.088749647140503 -78.08824920654297 1.510269641876221 L -78.07821655273438 1.497689604759216 L -78.06714630126953 1.48600959777832 C -77.73923492431641 1.140102505683899 -77.33145141601562 0.7099597454071045 -76.71001434326172 0.5050181150436401 C -76.47734832763672 0.418658047914505 -76.22678375244141 0.3748796284198761 -75.96515655517578 0.3748796284198761 C -75.55503082275391 0.3748796284198761 -75.15045166015625 0.4856586158275604 -74.82521057128906 0.686921238899231 C -74.38237762451172 0.9470334053039551 -73.99509429931641 1.32112181186676 -73.67411804199219 1.798795819282532 C -73.41512298583984 2.172424077987671 -73.19172668457031 2.581908941268921 -72.99122619628906 3.050479650497437 C -72.41795349121094 4.428842067718506 -72.07579040527344 5.982174873352051 -71.91997528076172 7.919977188110352 C -69.98218536376953 8.075785636901855 -68.42902374267578 8.417873382568359 -67.05399322509766 8.989749908447266 C -66.58191680908203 9.191720008850098 -66.17242431640625 9.415124893188477 -65.79879760742188 9.674117088317871 C -65.32112121582031 9.995094299316406 -64.947021484375 10.38239765167236 -64.68691253662109 10.82523441314697 C -64.35178375244141 11.36683654785156 -64.28061676025391 12.10502529144287 -64.5050048828125 12.7099781036377 C -64.70993041992188 13.33147716522217 -65.14008331298828 13.73921680450439 -65.48600769042969 14.06714916229248 L -65.49768829345703 14.07821941375732 L -65.51026916503906 14.08824920654297 C -67.08875274658203 15.34636974334717 -68.97148132324219 15.83755970001221 -70.61228179931641 16.19920921325684 L -70.61557769775391 16.1999397277832 L -70.61888885498047 16.20059967041016 C -70.92282104492188 16.26187133789062 -71.22272491455078 16.31262588500977 -71.49588775634766 16.35564231872559 C -71.80474090576172 18.35273933410645 -72.30828094482422 20.05560302734375 -72.95736694335938 21.29384994506836 C -73.75679779052734 22.81889915466309 -74.78437042236328 23.625 -75.92900085449219 23.625 Z M -78.47828674316406 16.58391952514648 C -78.20771789550781 18.11053657531738 -77.80919647216797 19.41457176208496 -77.31735229492188 20.37668037414551 C -76.86270141601562 21.26603889465332 -76.34368896484375 21.79699897766113 -75.92900085449219 21.79699897766113 C -75.10984039306641 21.79699897766113 -73.96273040771484 19.8575496673584 -73.37908172607422 16.58275413513184 C -74.22643280029297 16.6566219329834 -75.08202362060547 16.69400024414062 -75.92900085449219 16.69400024414062 L -76.30400085449219 16.69400024414062 L -76.30400085449219 16.69061851501465 C -77.02875518798828 16.68143463134766 -77.75698852539062 16.64569091796875 -78.47828674316406 16.58391952514648 Z M -78.73142242431641 14.73142433166504 C -77.82576751708984 14.82009983062744 -76.88460540771484 14.86499977111816 -75.92900085449219 14.86499977111816 C -75.03012847900391 14.85987377166748 -74.08775329589844 14.80894374847412 -73.12510681152344 14.71348571777344 C -73.10183715820312 14.46755027770996 -73.08119201660156 14.20481586456299 -73.06282806396484 13.92099952697754 L -73.41500091552734 13.92099952697754 L -73.95603942871094 13.92099952697754 L -73.76613616943359 13.41438007354736 L -72.42913818359375 9.847379684448242 L -72.07813262939453 8.910909652709961 L -71.72689056396484 9.847299575805664 L -70.38889312744141 13.41429996490479 L -70.19882202148438 13.92099952697754 L -70.73999786376953 13.92099952697754 L -71.23396301269531 13.92099952697754 C -71.24678802490234 14.11948108673096 -71.26025390625 14.30400371551514 -71.27466583251953 14.47856616973877 C -71.17015075683594 14.46297264099121 -71.06549072265625 14.44669628143311 -70.96259307861328 14.429274559021 C -69.45972442626953 14.12373733520508 -67.75595092773438 13.72130012512207 -66.53972625732422 12.81302833557129 C -66.22559356689453 12.56636047363281 -65.744384765625 12.07746315002441 -66.01889038085938 11.55556964874268 L -66.0206298828125 11.55225944519043 L -66.02230072021484 11.54891967773438 C -66.24974060058594 11.09475994110107 -66.79025268554688 10.64691925048828 -67.62882232666016 10.21782970428467 C -69.19586181640625 9.417459487915039 -70.99036407470703 8.987729072570801 -72.37912750244141 8.70280647277832 C -72.45536804199219 8.687689781188965 -72.52361297607422 8.649909019470215 -72.57646942138672 8.595883369445801 C -72.66193389892578 8.521976470947266 -72.69142913818359 8.430703163146973 -72.70107269287109 8.387350082397461 L -72.70173645019531 8.384349822998047 L -72.70234680175781 8.381349563598633 C -72.98726654052734 6.992269515991211 -73.41702270507812 5.196719646453857 -74.21795654296875 3.628569602966309 C -74.64691925048828 2.790249586105347 -75.09475708007812 2.249739646911621 -75.54891967773438 2.022299528121948 L -75.55226135253906 2.020629644393921 L -75.55557250976562 2.018889665603638 C -75.66098022460938 1.963449597358704 -75.76473236083984 1.936489582061768 -75.87274932861328 1.936489582061768 C -76.17375183105469 1.936489582061768 -76.50757598876953 2.150703430175781 -76.81303405761719 2.539730072021484 C -77.72130584716797 3.755959272384644 -78.12373352050781 5.45972204208374 -78.42927551269531 6.962595462799072 C -78.44669342041016 7.065488815307617 -78.46297454833984 7.17014741897583 -78.47856903076172 7.27466344833374 C -78.30400085449219 7.260250568389893 -78.11948394775391 7.246786117553711 -77.92099761962891 7.233963489532471 L -77.92099761962891 6.740999698638916 L -77.92099761962891 6.199909687042236 L -77.41435241699219 6.389869689941406 L -73.84835052490234 7.726869583129883 L -72.91181945800781 8.078000068664551 L -73.84835052490234 8.429129600524902 L -77.41435241699219 9.766129493713379 L -77.92099761962891 9.956089973449707 L -77.92099761962891 9.414999961853027 L -77.92099761962891 9.06282901763916 C -78.20481872558594 9.08119010925293 -78.46755218505859 9.101838111877441 -78.71348571777344 9.125105857849121 C -78.80894470214844 10.08777236938477 -78.85987854003906 11.03033351898193 -78.86501312255859 11.93113994598389 C -78.86499786376953 12.88482189178467 -78.82009887695312 13.82578468322754 -78.73142242431641 14.73142433166504 Z M -80.58273315429688 9.378829002380371 C -82.10964965820312 9.649429321289062 -83.41387176513672 10.04795265197754 -84.37606811523438 10.53977966308594 C -85.26580810546875 10.99456977844238 -85.7969970703125 11.51390933990479 -85.7969970703125 11.92899990081787 C -85.7969970703125 12.74777030944824 -83.85797119140625 13.89450836181641 -80.58393859863281 14.47803974151611 C -80.64569854736328 13.75679588317871 -80.68143463134766 13.02869510650635 -80.69062042236328 12.30399990081787 L -80.69300079345703 12.30399990081787 L -80.69400024414062 11.92899990081787 C -80.69400024414062 11.08190441131592 -80.65662384033203 10.2263011932373 -80.58273315429688 9.378829002380371 Z"/><path class="e" d="M -75.96515655517578 0.7498798370361328 C -76.17749786376953 0.7498798370361328 -76.39004516601562 0.7853221893310547 -76.58599853515625 0.8589992523193359 C -77.11399841308594 1.031000137329102 -77.46700286865234 1.397998809814453 -77.79499816894531 1.743999481201172 C -78.98100280761719 3.232000350952148 -79.45500183105469 4.977998733520508 -79.83300018310547 6.692998886108398 C -79.90899658203125 7.069999694824219 -79.97000122070312 7.447999954223633 -80.02700042724609 7.826000213623047 C -83.97699737548828 8.394000053405762 -87.25 9.792999267578125 -87.25 11.92899990081787 C -87.25 14.06399917602539 -83.97899627685547 15.46299934387207 -80.03099822998047 16.0310001373291 C -79.46299743652344 19.97900009155273 -78.06400299072266 23.25 -75.92900085449219 23.25 C -73.79299926757812 23.25 -72.39399719238281 19.97699928283691 -71.82599639892578 16.02700042724609 C -71.447998046875 15.96999931335449 -71.06999969482422 15.9089994430542 -70.69300079345703 15.83299922943115 C -68.97799682617188 15.45499992370605 -67.23200225830078 14.98099994659424 -65.74400329589844 13.79500007629395 C -65.39800262451172 13.46700000762939 -65.03099822998047 13.11399936676025 -64.85900115966797 12.58599948883057 C -64.66799926757812 12.07800006866455 -64.73400115966797 11.45899963378906 -65.00800323486328 11.01900005340576 C -65.26899719238281 10.57299995422363 -65.62999725341797 10.23899936676025 -66.01000213623047 9.983999252319336 C -66.38899993896484 9.720999717712402 -66.78900146484375 9.51099967956543 -67.197998046875 9.335999488830566 C -68.83300018310547 8.655999183654785 -70.55799865722656 8.38700008392334 -72.26999664306641 8.269999504089355 C -72.38700103759766 6.558000564575195 -72.65599822998047 4.833000183105469 -73.33599853515625 3.197999954223633 C -73.51100158691406 2.788999557495117 -73.72100067138672 2.388999938964844 -73.98400115966797 2.010000228881836 C -74.23899841308594 1.629999160766602 -74.572998046875 1.268999099731445 -75.01899719238281 1.007999420166016 C -75.28927612304688 0.8396930694580078 -75.62701416015625 0.7498798370361328 -75.96515655517578 0.7498798370361328 M -71.69200134277344 14.91799926757812 C -71.64499664306641 14.46499919891357 -71.61299896240234 14.00599956512451 -71.58699798583984 13.54599952697754 L -70.73999786376953 13.54599952697754 L -72.0780029296875 9.979000091552734 L -73.41500091552734 13.54599952697754 L -72.66500091552734 13.54599952697754 C -72.69300079345703 14.0649995803833 -72.73000335693359 14.57199954986572 -72.78299713134766 15.05499935150146 C -73.82599639892578 15.16799926757812 -74.87599945068359 15.23399925231934 -75.92900085449219 15.23999977111816 C -77.04499816894531 15.23999977111816 -78.09700012207031 15.17999935150146 -79.072998046875 15.07299995422363 C -79.18000030517578 14.096999168396 -79.23999786376953 13.04500007629395 -79.23999786376953 11.92899990081787 C -79.23400115966797 10.87599945068359 -79.16799926757812 9.82599925994873 -79.05500030517578 8.782999992370605 C -78.57199859619141 8.729999542236328 -78.06500244140625 8.692999839782715 -77.54599761962891 8.664999961853027 L -77.54599761962891 9.414999961853027 L -73.98000335693359 8.078000068664551 L -77.54599761962891 6.740999221801758 L -77.54599761962891 7.586999893188477 C -78.00599670410156 7.612998962402344 -78.46499633789062 7.645000457763672 -78.91799926757812 7.691999435424805 C -78.87899780273438 7.424999237060547 -78.84300231933594 7.159000396728516 -78.79799652099609 6.893999099731445 C -78.46800231933594 5.270000457763672 -78.052001953125 3.569999694824219 -77.11100006103516 2.312000274658203 C -76.63199615478516 1.700000762939453 -75.99701690673828 1.363002777099609 -75.38099670410156 1.687000274658203 C -74.75199890136719 2.001998901367188 -74.25599670410156 2.730998992919922 -73.88400268554688 3.458000183105469 C -73.12400054931641 4.945999145507812 -72.68000030517578 6.624000549316406 -72.33499908447266 8.305999755859375 C -72.33300018310547 8.314999580383301 -72.322998046875 8.315999984741211 -72.31500244140625 8.321000099182129 C -72.31099700927734 8.324999809265137 -72.31199645996094 8.333999633789062 -72.30599975585938 8.335000038146973 C -70.62400054931641 8.679999351501465 -68.94599914550781 9.12399959564209 -67.45800018310547 9.883999824523926 C -66.73100280761719 10.25599956512451 -66.00199890136719 10.7519998550415 -65.68699645996094 11.38099956512451 C -65.36299896240234 11.99699974060059 -65.69999694824219 12.63199996948242 -66.31199645996094 13.11100006103516 C -67.56999969482422 14.05200004577637 -69.26999664306641 14.46799945831299 -70.89399719238281 14.79799938201904 C -71.15899658203125 14.84299945831299 -71.42500305175781 14.87899971008301 -71.69200134277344 14.91799926757812 M -80.16500091552734 14.92799949645996 C -83.84200286865234 14.35699939727783 -86.1719970703125 13.0939998626709 -86.1719970703125 11.92899990081787 C -86.1719970703125 10.76299953460693 -83.84100341796875 9.5 -80.16300201416016 8.928999900817871 C -80.26699829101562 9.927000045776367 -80.31900024414062 10.92799949645996 -80.31900024414062 11.92899990081787 L -80.31800079345703 11.92899990081787 C -80.31800079345703 12.92999935150146 -80.26599884033203 13.9419994354248 -80.16500091552734 14.92799949645996 M -75.92900085449219 22.17199897766113 C -77.09400177001953 22.17199897766113 -78.35700225830078 19.84199905395508 -78.92800140380859 16.16499900817871 C -77.94200134277344 16.26599884033203 -76.93000030517578 16.31800079345703 -75.92900085449219 16.31800079345703 L -75.92900085449219 16.31900024414062 C -74.92800140380859 16.31900024414062 -73.927001953125 16.26700019836426 -72.92900085449219 16.16300010681152 C -73.5 19.84099960327148 -74.76300048828125 22.17199897766113 -75.92900085449219 22.17199897766113 M -75.96515655517578 -0.0001201629638671875 C -75.48792266845703 -0.0001201629638671875 -75.01495361328125 0.129669189453125 -74.63192749023438 0.36553955078125 C -74.14250946044922 0.6537380218505859 -73.71627807617188 1.064529418945312 -73.36484527587891 1.586706161499023 C -73.09175109863281 1.980915069580078 -72.85674285888672 2.411525726318359 -72.64646911621094 2.902969360351562 C -72.64546966552734 2.905300140380859 -72.64447784423828 2.90764045715332 -72.64350128173828 2.909990310668945 C -72.08774566650391 4.246273040771484 -71.74372100830078 5.741003036499023 -71.57357025146484 7.573570251464844 C -69.74100494384766 7.743717193603516 -68.24626922607422 8.08774471282959 -66.90998840332031 8.643499374389648 C -66.90763854980469 8.644479751586914 -66.90529632568359 8.645469665527344 -66.90296936035156 8.646470069885254 C -66.41152954101562 8.85673999786377 -65.98091888427734 9.091751098632812 -65.58670806884766 9.364848136901855 C -65.06459045410156 9.71623420715332 -64.65381622314453 10.14244174957275 -64.36562347412109 10.63178157806396 C -63.96900939941406 11.27548027038574 -63.88715362548828 12.1166410446167 -64.15105438232422 12.83402061462402 C -64.38643646240234 13.5415153503418 -64.87244415283203 14.00222682952881 -65.22801971435547 14.33929920196533 C -65.24357604980469 14.35404968261719 -65.25977325439453 14.36812973022461 -65.27654266357422 14.38149929046631 C -66.91780853271484 15.68966007232666 -68.84964752197266 16.19470977783203 -70.53157043457031 16.56542015075684 C -70.53597259521484 16.5663890838623 -70.54036712646484 16.56731986999512 -70.54479217529297 16.56821060180664 C -70.757568359375 16.61110687255859 -70.96786499023438 16.64886093139648 -71.16844177246094 16.68243408203125 C -71.48665618896484 18.60426712036133 -71.98693084716797 20.25030136108398 -72.62522888183594 21.46796035766602 C -73.23074340820312 22.62306022644043 -74.29543304443359 24 -75.92900085449219 24 C -77.56195831298828 24 -78.62641906738281 22.62380027770996 -79.23184204101562 21.46932029724121 C -79.86988830566406 20.25260734558105 -80.37001037597656 18.60819625854492 -80.68822479248047 16.6882209777832 C -82.60820007324219 16.3700065612793 -84.25260925292969 15.86988544464111 -85.46932220458984 15.23183917999268 C -86.62380218505859 14.62642002105713 -88 13.5619592666626 -88 11.92899990081787 C -88 10.29542922973633 -86.62306213378906 9.230739593505859 -85.46795654296875 8.625229835510254 C -84.25030517578125 7.986933708190918 -82.60426330566406 7.486652374267578 -80.68243408203125 7.16844367980957 C -80.64885711669922 6.967868804931641 -80.61110687255859 6.757570266723633 -80.56820678710938 6.544790267944336 C -80.56732177734375 6.540369033813477 -80.56639099121094 6.535968780517578 -80.56542205810547 6.531570434570312 C -80.19470977783203 4.849649429321289 -79.68965911865234 2.917810440063477 -78.38150024414062 1.276538848876953 C -78.36812591552734 1.259769439697266 -78.35404968261719 1.243579864501953 -78.33930206298828 1.228019714355469 C -78.00222778320312 0.8724422454833984 -77.54152679443359 0.3864402770996094 -76.83403015136719 0.1510601043701172 C -76.56131744384766 0.05073738098144531 -76.26908874511719 -0.0001201629638671875 -75.96515655517578 -0.0001201629638671875 Z M -72.83421325683594 8.868762016296387 C -72.95065307617188 8.764010429382324 -73.03220367431641 8.625911712646484 -73.067138671875 8.46869945526123 C -73.06803131103516 8.464699745178223 -73.06887817382812 8.460700035095215 -73.0697021484375 8.456699371337891 C -73.34986114501953 7.090839385986328 -73.77150726318359 5.327110290527344 -74.55191802978516 3.799139022827148 C -75.03984832763672 2.845579147338867 -75.45475006103516 2.488859176635742 -75.71684265136719 2.357608795166016 C -75.72129058837891 2.355379104614258 -75.72572326660156 2.353099822998047 -75.73013305664062 2.350780487060547 C -75.78109741210938 2.323980331420898 -75.826416015625 2.311489105224609 -75.87274932861328 2.311489105224609 C -76.04755401611328 2.311489105224609 -76.29339599609375 2.486249923706055 -76.51554870605469 2.768095016479492 C -77.186767578125 3.668895721435547 -77.57118988037109 4.874177932739258 -77.84891510009766 6.05488395690918 C -77.67124938964844 5.976448059082031 -77.46800994873047 5.969255447387695 -77.28269958496094 6.038740158081055 L -73.71669769287109 7.375740051269531 C -73.4239501953125 7.485500335693359 -73.23000335693359 7.765350341796875 -73.23000335693359 8.078000068664551 C -73.23000335693359 8.390649795532227 -73.4239501953125 8.670499801635742 -73.71669769287109 8.78026008605957 L -77.28269958496094 10.11725997924805 C -77.51303100585938 10.20362281799316 -77.77105712890625 10.17153930664062 -77.97322082519531 10.03142929077148 C -78.16152191162109 9.900931358337402 -78.27906799316406 9.692147254943848 -78.2943115234375 9.465368270874023 C -78.31957244873047 9.46734619140625 -78.34458160400391 9.469340324401855 -78.36949920654297 9.47136402130127 C -78.44503021240234 10.31497383117676 -78.48549652099609 11.14066886901855 -78.49001312255859 11.93326950073242 C -78.48999786376953 12.76523876190186 -78.45526885986328 13.58860206604004 -78.38657379150391 14.38657093048096 C -77.58840942382812 14.45527267456055 -76.76443481445312 14.48999977111816 -75.92900085449219 14.48999977111816 C -75.13984680175781 14.48549556732178 -74.31484222412109 14.44502925872803 -73.47136688232422 14.36949825286865 C -73.46933746337891 14.34458541870117 -73.46734619140625 14.31957626342773 -73.46537017822266 14.29430961608887 C -73.69213104248047 14.27906894683838 -73.90090942382812 14.16153049468994 -74.03141021728516 13.97323989868164 C -74.17153167724609 13.77108955383301 -74.20362091064453 13.51307964324951 -74.11728668212891 13.28276920318604 L -72.78028869628906 9.71576976776123 C -72.67056274414062 9.423009872436523 -72.39073181152344 9.229039192199707 -72.07808685302734 9.229000091552734 C -71.76544952392578 9.228960037231445 -71.48558044433594 9.422869682312012 -71.37577819824219 9.71558952331543 L -70.03778076171875 13.28258991241455 C -69.96829223632812 13.46783447265625 -69.97542572021484 13.67101860046387 -70.05376434326172 13.8486499786377 C -68.8734130859375 13.57094478607178 -67.66861724853516 13.18656635284424 -66.76810455322266 12.51555347442627 C -66.58655548095703 12.37242317199707 -66.1982421875 12.02014923095703 -66.35077667236328 11.73012924194336 C -66.35309600830078 11.7257194519043 -66.35537719726562 11.72128963470459 -66.35761260986328 11.71683979034424 C -66.48886108398438 11.45475006103516 -66.8455810546875 11.03984928131104 -67.79963684082031 10.55167007446289 C -69.32543182373047 9.772366523742676 -71.08696746826172 9.350786209106445 -72.45220184326172 9.070622444152832 C -72.59909820556641 9.041505813598633 -72.73089599609375 8.970363616943359 -72.83421325683594 8.868762016296387 Z M -81.06797027587891 11.96850776672363 C -81.06865692138672 11.95542907714844 -81.06900024414062 11.94224739074707 -81.06900024414062 11.92899990081787 C -81.06900024414062 11.23461818695068 -81.04419708251953 10.53451919555664 -80.99506378173828 9.83777904510498 C -84.30802154541016 10.50147914886475 -85.4219970703125 11.59398651123047 -85.4219970703125 11.92899990081787 C -85.4219970703125 12.26384544372559 -84.30831909179688 13.35594844818115 -80.99554443359375 14.01947689056396 C -81.04277801513672 13.33704376220703 -81.06707000732422 12.65050792694092 -81.06797027587891 11.96850776672363 Z M -75.92900085449219 21.42199897766113 C -75.59398651123047 21.42199897766113 -74.50148010253906 20.30802154541016 -73.83777618408203 16.99506378173828 C -74.53452301025391 17.0441951751709 -75.234619140625 17.06900024414062 -75.92900085449219 17.06900024414062 C -75.94227600097656 17.06900024414062 -75.95546722412109 17.06865310668945 -75.96856689453125 17.06797218322754 C -76.65056610107422 17.06706809997559 -77.33704376220703 17.04277992248535 -78.01947784423828 16.99554443359375 C -77.35594940185547 20.30831527709961 -76.26384735107422 21.42199897766113 -75.92900085449219 21.42199897766113 Z"/></g></g></svg>