<svg xmlns="http://www.w3.org/2000/svg" xmlns:xlink="http://www.w3.org/1999/xlink" width="24" height="24" viewBox="0 0 24 24"><defs><style>.a,.c,.d,.h{fill:none;}.b{clip-path:url(#a);}.c,.d,.g{stroke:#000;}.c,.d,.e,.h{stroke-linecap:round;stroke-linejoin:round;}.c,.g,.h{stroke-width:1.5px;}.d{stroke-width:3px;}.e,.f,.g{fill:#fff;}.g{stroke-miterlimit:10;}.h{stroke:#fff;}.i,.j{stroke:none;}.j{fill:#000;}</style><clipPath id="a"><rect class="a" width="24" height="24" transform="translate(0 0)"/></clipPath></defs><g class="b"><circle class="c" cx="8.25" cy="8.25" r="8.25" transform="translate(1.5 1.5)"/><circle class="d" cx="8.25" cy="8.25" r="8.25" transform="translate(1.5 1.5)"/><g class="e"><path class="i" d="M 21.71199989318848 23.57299995422363 C 21.21076965332031 23.57299995422363 20.739990234375 23.3775691986084 20.3863697052002 23.0226993560791 L 16.67387008666992 19.31119918823242 C 16.31991004943848 18.95723915100098 16.125 18.48661994934082 16.125 17.98600006103516 C 16.125 17.90499114990234 16.13140106201172 17.82205772399902 16.14440155029297 17.73574066162109 L 15.26782989501953 16.85916900634766 L 15.00266933441162 16.5939998626709 L 15.26782989501953 16.32882881164551 L 16.32882881164551 15.26782989501953 L 16.59412956237793 15.00253963470459 L 16.85928916931152 15.26795959472656 L 17.73894691467285 16.14847946166992 C 17.82807350158691 16.13632965087891 17.91811370849609 16.13020896911621 18.00832939147949 16.13020896911621 C 18.51660919189453 16.13020896911621 18.98462867736816 16.31830024719238 19.32616996765137 16.65983009338379 L 23.03816986083984 20.37182998657227 C 23.39225006103516 20.72716903686523 23.58699989318848 21.19797897338867 23.58699989318848 21.69799995422363 C 23.58699989318848 22.1986198425293 23.39208984375 22.66923904418945 23.03816986083984 23.02316856384277 C 22.6835994720459 23.37772941589355 22.21261978149414 23.57299995422363 21.71199989318848 23.57299995422363 Z"/><path class="j" d="M 21.71199989318848 23.19799995422363 C 22.11299896240234 23.19799995422363 22.48900032043457 23.04199981689453 22.77299880981445 22.75799942016602 C 23.05599975585938 22.47500038146973 23.21199989318848 22.0989990234375 23.21199989318848 21.69799995422363 C 23.21199989318848 21.29699897766113 23.05599975585938 20.92099952697754 22.77299880981445 20.63699913024902 L 19.06099891662598 16.92499923706055 C 18.6830005645752 16.54699897766113 18.11800003051758 16.4269962310791 17.61400032043457 16.55399894714355 L 16.5939998626709 15.53299903869629 L 15.53299903869629 16.5939998626709 L 16.55200004577637 17.61299896240234 C 16.52099990844727 17.73399925231934 16.5 17.85799980163574 16.5 17.98600006103516 C 16.5 18.38599967956543 16.6560001373291 18.76299858093262 16.93899917602539 19.04599952697754 L 20.65199851989746 22.75799942016602 C 20.93499946594238 23.04199981689453 21.3120002746582 23.19799995422363 21.71199989318848 23.19799995422363 M 21.71199989318848 23.94799995422363 C 21.11035919189453 23.94799995422363 20.54522895812988 23.7133903503418 20.1207389831543 23.28738975524902 L 16.40873908996582 19.5763988494873 C 15.98391914367676 19.15157890319824 15.74999904632568 18.58679008483887 15.74999904632568 17.98600006103516 C 15.74999904632568 17.94918251037598 15.75105571746826 17.91216278076172 15.7531795501709 17.87483978271484 L 15.00266933441162 17.12432861328125 C 14.70977973937988 16.83143997192383 14.70977973937988 16.35655975341797 15.00266933441162 16.06366920471191 L 16.06366920471191 15.00266933441162 C 16.20431709289551 14.86202144622803 16.39509963989258 14.78299903869629 16.59399032592773 14.78299903869629 C 16.79377174377441 14.7822904586792 16.98390769958496 14.86210918426514 17.12458992004395 15.0029296875 L 17.8796272277832 15.75870800018311 C 17.92245864868164 15.75637912750244 17.96538352966309 15.75520992279053 18.00832939147949 15.75520992279053 C 18.61677932739258 15.75520992279053 19.17897033691406 15.98230934143066 19.59132957458496 16.39466857910156 L 23.30332946777344 20.10667037963867 C 23.72840881347656 20.53324890136719 23.96199989318848 21.09805870056152 23.96199989318848 21.69799995422363 C 23.96199989318848 22.29878997802734 23.72807884216309 22.86357879638672 23.30332946777344 23.288330078125 C 22.87793922424316 23.71372032165527 22.31278991699219 23.94799995422363 21.71199989318848 23.94799995422363 Z"/></g><rect class="f" width="1.5" height="2.486" transform="translate(15.533 16.594) rotate(-45)"/><path class="f" d="M22.773,20.637l-3.712-3.712a1.536,1.536,0,0,0-2.122,0,1.5,1.5,0,0,0,0,2.121l3.713,3.713a1.5,1.5,0,0,0,2.121-2.122Z"/><path class="g" d="M7.313,8.414H9.188v1.875a.563.563,0,0,0,1.125,0V8.414h1.875a.562.562,0,0,0,0-1.125H10.313V5.414a.563.563,0,1,0-1.125,0V7.289H7.313a.562.562,0,1,0,0,1.125Z"/><path class="g" d="M12.188,12.774H7.313a.563.563,0,1,0,0,1.125h4.875a.563.563,0,0,0,0-1.125Z"/><rect class="f" width="6" height="1.125" rx="0.562" transform="translate(6.75 7.289)"/><rect class="f" width="6" height="1.125" rx="0.562" transform="translate(6.75 12.774)"/><rect class="f" width="6" height="1.125" rx="0.562" transform="translate(10.313 4.851) rotate(90)"/><circle class="h" cx="8.25" cy="8.25" r="8.25" transform="translate(1.5 1.5)"/></g></svg>