<svg xmlns="http://www.w3.org/2000/svg" xmlns:xlink="http://www.w3.org/1999/xlink" width="40" height="40" viewBox="0 0 40 40"><defs><style>.a{fill:none;}.b{clip-path:url(#a);}.c{fill:#fff;}</style><clipPath id="a"><rect class="a" width="40" height="40" transform="translate(0 0)"/></clipPath></defs><g class="b" transform="translate(0 0)"><path class="a" d="M32,29,22,23,8,27"/><line class="a" y2="16" transform="translate(22 7)"/><path class="a" d="M18,33,8,27V10l10,5Z"/><path class="a" d="M32,12,22,7,8,10l10,5Z"/><path class="a" d="M18,33l14-4V12L18,15Z"/><circle class="c" cx="1.5" cy="1.5" r="1.5" transform="translate(7 9)"/><circle class="c" cx="1.5" cy="1.5" r="1.5" transform="translate(20.5 6)"/><circle class="c" cx="1.5" cy="1.5" r="1.5" transform="translate(30 11)"/><circle class="c" cx="1.5" cy="1.5" r="1.5" transform="translate(16.5 13.5)"/><circle class="c" cx="1.5" cy="1.5" r="1.5" transform="translate(7 25)"/><circle class="c" cx="1.5" cy="1.5" r="1.5" transform="translate(20.5 21.5)"/><circle class="c" cx="1.5" cy="1.5" r="1.5" transform="translate(30 27)"/><circle class="c" cx="1.5" cy="1.5" r="1.5" transform="translate(16.5 31)"/></g></svg>