<svg xmlns="http://www.w3.org/2000/svg" xmlns:xlink="http://www.w3.org/1999/xlink" width="40" height="40" viewBox="0 0 40 40"><defs><style>.a{fill:none;}.b{clip-path:url(#a);}.c{fill:#777;}</style><clipPath id="a"><rect class="a" width="40" height="40" transform="translate(0 60)"/></clipPath></defs><g class="b" transform="translate(0 -60)"><path class="a" d="M32,89,22,83,8,87"/><line class="a" y2="16" transform="translate(22 67)"/><path class="a" d="M18,93,8,87V70l10,5Z"/><path class="a" d="M32,72,22,67,8,70l10,5Z"/><path class="a" d="M18,93l14-4V72L18,75Z"/><circle class="c" cx="1.5" cy="1.5" r="1.5" transform="translate(7 69)"/><circle class="c" cx="1.5" cy="1.5" r="1.5" transform="translate(20.5 66)"/><circle class="c" cx="1.5" cy="1.5" r="1.5" transform="translate(30 71)"/><circle class="c" cx="1.5" cy="1.5" r="1.5" transform="translate(16.5 73.5)"/><circle class="c" cx="1.5" cy="1.5" r="1.5" transform="translate(7 85)"/><circle class="c" cx="1.5" cy="1.5" r="1.5" transform="translate(20.5 81.5)"/><circle class="c" cx="1.5" cy="1.5" r="1.5" transform="translate(30 87)"/><circle class="c" cx="1.5" cy="1.5" r="1.5" transform="translate(16.5 91)"/></g></svg>