<svg xmlns="http://www.w3.org/2000/svg" xmlns:xlink="http://www.w3.org/1999/xlink" width="40" height="40" viewBox="0 0 40 40"><defs><style>.a,.c,.d{fill:none;}.b{clip-path:url(#a);}.c,.d{stroke:#111;stroke-linejoin:round;}.d{stroke-linecap:round;}</style><clipPath id="a"><rect class="a" width="40" height="40" transform="translate(0 -60)"/></clipPath></defs><g class="b" transform="translate(0 60)"><rect class="c" width="25" height="25" transform="translate(7.5 -52.5)"/><line class="d" y2="2.5" transform="translate(20 -52.5)"/><line class="d" y2="1" transform="translate(11.667 -52.5)"/><line class="d" y2="1" transform="translate(24.167 -52.5)"/><line class="d" y2="1" transform="translate(15.833 -52.5)"/><line class="d" y2="1" transform="translate(28.333 -52.5)"/><line class="d" y2="2.5" transform="translate(20 -30)"/><line class="d" y2="1" transform="translate(11.667 -28.5)"/><line class="d" y2="1" transform="translate(24.167 -28.5)"/><line class="d" y2="1" transform="translate(15.833 -28.5)"/><line class="d" y2="1" transform="translate(28.333 -28.5)"/><line class="d" x2="2.5" transform="translate(7.5 -40)"/><line class="d" x2="1" transform="translate(7.5 -31.667)"/><line class="d" x2="1" transform="translate(7.5 -44.167)"/><line class="d" x2="1" transform="translate(7.5 -35.833)"/><line class="d" x2="1" transform="translate(7.5 -48.333)"/><line class="d" x2="2.5" transform="translate(30 -40)"/><line class="d" x2="1" transform="translate(31.5 -31.667)"/><line class="d" x2="1" transform="translate(31.5 -44.167)"/><line class="d" x2="1" transform="translate(31.5 -35.833)"/><line class="d" x2="1" transform="translate(31.5 -48.333)"/></g></svg>