<svg xmlns="http://www.w3.org/2000/svg" xmlns:xlink="http://www.w3.org/1999/xlink" width="40" height="40" viewBox="0 0 40 40"><defs><style>.a,.c,.d{fill:none;}.b{clip-path:url(#a);}.c,.d{stroke:#777;stroke-linejoin:round;}.d{stroke-linecap:round;}</style><clipPath id="a"><rect class="a" width="40" height="40" transform="translate(0 0)"/></clipPath></defs><g class="b"><rect class="c" width="25" height="25" transform="translate(7.5 7.5)"/><line class="d" y2="2.5" transform="translate(20 7.5)"/><line class="d" y2="1" transform="translate(11.667 7.5)"/><line class="d" y2="1" transform="translate(24.167 7.5)"/><line class="d" y2="1" transform="translate(15.833 7.5)"/><line class="d" y2="1" transform="translate(28.333 7.5)"/><line class="d" y2="2.5" transform="translate(20 30)"/><line class="d" y2="1" transform="translate(11.667 31.5)"/><line class="d" y2="1" transform="translate(24.167 31.5)"/><line class="d" y2="1" transform="translate(15.833 31.5)"/><line class="d" y2="1" transform="translate(28.333 31.5)"/><line class="d" x2="2.5" transform="translate(7.5 20)"/><line class="d" x2="1" transform="translate(7.5 28.333)"/><line class="d" x2="1" transform="translate(7.5 15.833)"/><line class="d" x2="1" transform="translate(7.5 24.167)"/><line class="d" x2="1" transform="translate(7.5 11.667)"/><line class="d" x2="2.5" transform="translate(30 20)"/><line class="d" x2="1" transform="translate(31.5 28.333)"/><line class="d" x2="1" transform="translate(31.5 15.833)"/><line class="d" x2="1" transform="translate(31.5 24.167)"/><line class="d" x2="1" transform="translate(31.5 11.667)"/></g></svg>