<svg xmlns="http://www.w3.org/2000/svg" xmlns:xlink="http://www.w3.org/1999/xlink" width="40" height="40" viewBox="0 0 40 40"><defs><style>.a{fill:none;}.b{clip-path:url(#a);}.c{fill:#777;}.d{fill:#555;}</style><clipPath id="a"><rect class="a" width="40" height="40" transform="translate(240 0)"/></clipPath></defs><g class="b" transform="translate(-240 0)"><path class="c" d="M385.049,30.085a.5.5,0,0,1,.359-.151h6.466L380.5,18.232V34.768Z" transform="translate(-120)"/><g transform="translate(-120)"><path class="d" d="M387.218,9.925a.5.5,0,0,0,.707-.707L386.511,7.8a.5.5,0,0,0-.707.707Z"/><path class="d" d="M381.9,7.568a.5.5,0,0,0,.108-.012l1.954-.428a.5.5,0,0,0-.214-.976L381.8,6.58a.5.5,0,0,0,.106.988Z"/><path class="d" d="M368.5,11.778a.5.5,0,0,0,.5-.5V10.4l.312-.068a.5.5,0,0,0-.214-.977l-.7.155A.5.5,0,0,0,368,10v1.278A.5.5,0,0,0,368.5,11.778Z"/><path class="d" d="M383.176,16.528a.5.5,0,0,0-.678-.2l-1.6.878.722.744,1.356-.746A.5.5,0,0,0,383.176,16.528Z"/><path class="d" d="M389.676,12.383l-.169.093a.5.5,0,1,0,.482.876l.752-.414a.5.5,0,0,0,.113-.792l-.808-.807a.5.5,0,1,0-.707.707Z"/><path class="d" d="M385.368,15.823a.5.5,0,0,0,.24-.062l1.752-.964a.5.5,0,1,0-.482-.876l-1.752.964a.5.5,0,0,0,.242.938Z"/><path class="d" d="M378.867,7.221l-1.953.427a.5.5,0,0,0,.106.988.564.564,0,0,0,.107-.011l1.954-.428a.5.5,0,1,0-.214-.976Z"/><path class="d" d="M373.983,8.289l-1.954.427a.5.5,0,1,0,.214.977l1.954-.427a.5.5,0,0,0-.214-.977Z"/><path class="d" d="M369.4,18.7a.5.5,0,1,0-.707.707l1.414,1.414a.5.5,0,0,0,.707,0,.5.5,0,0,0,0-.707Z"/><path class="d" d="M369,16.278v-2a.5.5,0,1,0-1,0v2a.5.5,0,0,0,1,0Z"/><path class="d" d="M372.939,22.232a.5.5,0,0,0-.707.707l1.414,1.415a.5.5,0,0,0,.708-.708Z"/></g></g></svg>