<svg xmlns="http://www.w3.org/2000/svg" xmlns:xlink="http://www.w3.org/1999/xlink" width="40" height="40" viewBox="0 0 40 40"><defs><style>.a{fill:none;}.b{clip-path:url(#a);}.c{fill:#111;}</style><clipPath id="a"><rect class="a" width="40" height="40" transform="translate(180 -60)"/></clipPath></defs><g class="b" transform="translate(-180 60)"><path class="c" d="M325.049,30.085a.5.5,0,0,1,.359-.151h6.466L320.5,18.232V34.768Z" transform="translate(-120 -60)"/><g transform="translate(-120 -60)"><path class="c" d="M325.609,7.6a13.917,13.917,0,0,1,1.84.579.5.5,0,0,0,.369-.929,15.058,15.058,0,0,0-1.971-.622.5.5,0,0,0-.238.972Z"/><path class="c" d="M320.764,7.009c.677.017,1.337.055,1.96.115a.385.385,0,0,0,.048,0,.5.5,0,0,0,.047-1c-.646-.062-1.33-.1-2.031-.12a.5.5,0,1,0-.024,1Z"/><path class="c" d="M322.8,17.431c-.526.042-1.075.059-1.627.063l.937.964c.256-.012.52-.01.769-.03a.5.5,0,1,0-.079-1Z"/><path class="c" d="M327.512,16.386a12.9,12.9,0,0,1-1.829.594.5.5,0,0,0,.12.985.546.546,0,0,0,.12-.014,13.936,13.936,0,0,0,1.972-.641.5.5,0,1,0-.383-.924Z"/><path class="c" d="M331.636,13.238a.5.5,0,0,0-.661.251,4.425,4.425,0,0,1-1.068,1.429.5.5,0,0,0,.677.736,5.43,5.43,0,0,0,1.3-1.755A.5.5,0,0,0,331.636,13.238Z"/><path class="c" d="M330.967,11a.5.5,0,0,0,.454.289.492.492,0,0,0,.21-.046.5.5,0,0,0,.243-.664,5.334,5.334,0,0,0-1.337-1.734.5.5,0,1,0-.661.751A4.319,4.319,0,0,1,330.967,11Z"/><path class="c" d="M317.735,6.1c-.7.062-1.384.154-2.027.274a.5.5,0,0,0,.09.991.572.572,0,0,0,.092-.008c.613-.114,1.263-.2,1.933-.261a.5.5,0,0,0,.454-.542A.494.494,0,0,0,317.735,6.1Z"/><path class="c" d="M314.181,23.534a12.6,12.6,0,0,1-1.732-.829.5.5,0,1,0-.5.865,13.533,13.533,0,0,0,1.871.9.5.5,0,1,0,.362-.932Z"/><path class="c" d="M313.382,7.489a.5.5,0,0,0-.649-.282,12.4,12.4,0,0,0-1.866.917.5.5,0,0,0,.258.928.494.494,0,0,0,.258-.072,11.38,11.38,0,0,1,1.718-.842A.5.5,0,0,0,313.382,7.489Z"/><path class="c" d="M307.619,15.171v-.1a.5.5,0,0,0-.494-.507h-.006a.5.5,0,0,0-.5.494v.115a8.261,8.261,0,0,0,.247,1.991.5.5,0,0,0,.485.38.507.507,0,0,0,.121-.015.5.5,0,0,0,.364-.606A7.279,7.279,0,0,1,307.619,15.171Z"/><path class="c" d="M309.227,10.8a.5.5,0,1,0-.767-.641,7.987,7.987,0,0,0-1.139,1.793.5.5,0,0,0,.245.663.486.486,0,0,0,.208.046.5.5,0,0,0,.455-.291A7.033,7.033,0,0,1,309.227,10.8Z"/><path class="c" d="M308.98,19.5a.5.5,0,1,0-.834.551,10.581,10.581,0,0,0,1.324,1.624.5.5,0,0,0,.71-.7A9.62,9.62,0,0,1,308.98,19.5Z"/></g></g></svg>