<svg xmlns="http://www.w3.org/2000/svg" xmlns:xlink="http://www.w3.org/1999/xlink" width="40" height="40" viewBox="0 0 40 40"><defs><style>.a{fill:none;}.b{clip-path:url(#a);}.c{fill:#111;}</style><clipPath id="a"><rect class="a" width="40" height="40" transform="translate(120 -60)"/></clipPath></defs><g class="b" transform="translate(-120 60)"><g transform="translate(-120 -60)"><path class="c" d="M267.5,20.5h1a.5.5,0,0,0,.5-.5V19a.5.5,0,0,0-1,0v.5h-.5a.5.5,0,0,0,0,1Z"/><path class="c" d="M262.5,8.5h2a.5.5,0,0,0,0-1h-2a.5.5,0,0,0,0,1Z"/><path class="c" d="M257.5,8.5h2a.5.5,0,0,0,0-1h-2a.5.5,0,0,0,0,1Z"/><path class="c" d="M267.5,8.5h.5V9a.5.5,0,0,0,1,0V8a.5.5,0,0,0-.5-.5h-1a.5.5,0,0,0,0,1Z"/><path class="c" d="M265,20a.5.5,0,0,0-.5-.5h-1.373l.972,1h.4A.5.5,0,0,0,265,20Z"/><path class="c" d="M268.5,12.25a.5.5,0,0,0-.5.5v2.5a.5.5,0,0,0,1,0v-2.5A.5.5,0,0,0,268.5,12.25Z"/><path class="c" d="M254.5,19.5h-2a.5.5,0,0,0,0,1h2a.5.5,0,0,0,0-1Z"/><path class="c" d="M254.5,7.5h-2a.5.5,0,0,0,0,1h2a.5.5,0,0,0,0-1Z"/><path class="c" d="M259.5,19.5h-2a.5.5,0,0,0,0,1h2Z"/><path class="c" d="M249.5,19.5H249V19a.5.5,0,0,0-1,0v1a.5.5,0,0,0,.5.5h1a.5.5,0,0,0,0-1Z"/><path class="c" d="M248.5,15.75a.5.5,0,0,0,.5-.5v-2.5a.5.5,0,0,0-1,0v2.5A.5.5,0,0,0,248.5,15.75Z"/><path class="c" d="M249.5,7.5h-1a.5.5,0,0,0-.5.5V9a.5.5,0,0,0,1,0V8.5h.5a.5.5,0,0,0,0-1Z"/></g><path class="c" d="M265.049,30.085a.5.5,0,0,1,.359-.151h6.466L260.5,18.232V34.768Z" transform="translate(-120 -60)"/></g></svg>