<svg xmlns="http://www.w3.org/2000/svg" xmlns:xlink="http://www.w3.org/1999/xlink" width="40" height="40" viewBox="0 0 40 40"><defs><style>.a{fill:none;}.b{clip-path:url(#a);}.c{fill:#555;}.d{fill:#777;}</style><clipPath id="a"><rect class="a" width="40" height="40" transform="translate(0 0)"/></clipPath></defs><g class="b" transform="translate(0 0)"><path class="c" d="M25.5,21.5v-7H7.5v18h7v-11Z" transform="translate(0 -7)"/><path class="c" d="M25.5,14H7.5a.5.5,0,0,0-.5.5v18a.5.5,0,0,0,.5.5h7a.5.5,0,0,0,.5-.5V22H25.5a.5.5,0,0,0,.5-.5v-7A.5.5,0,0,0,25.5,14ZM8,15H25v6H14.5a.5.5,0,0,0-.5.5V32H8Z" transform="translate(0 -7)"/><path class="d" d="M0,18.5H18a.5.5,0,0,0,.5-.5V0A.5.5,0,0,0,18-.5H0A.5.5,0,0,0-.5,0V18A.5.5,0,0,0,0,18.5Zm17.5-1H.5V.5h17Z" transform="translate(14.5 14.5)"/><path class="d" d="M6-.5H0A.5.5,0,0,0-.5,0,.5.5,0,0,0,0,.5H6A.5.5,0,0,0,6.5,0,.5.5,0,0,0,6-.5Z" transform="translate(20.5 23.5)"/><path class="d" d="M0-.5A.5.5,0,0,0-.5,0V6a.5.5,0,0,0,.5.5A.5.5,0,0,0,.5,6V0A.5.5,0,0,0,0-.5Z" transform="translate(23.5 20.5)"/></g></svg>