<svg xmlns="http://www.w3.org/2000/svg" xmlns:xlink="http://www.w3.org/1999/xlink" width="16" height="16" viewBox="0 0 16 16"><defs><style>.a{fill:none;}.b{clip-path:url(#a);}.c{fill:#777;}</style><clipPath id="a"><rect class="a" width="16" height="16" transform="translate(0 -36)"/></clipPath></defs><g class="b" transform="translate(0 36)"><path class="c" d="M15.354-28.25A8.529,8.529,0,0,0,8-32.5,8.529,8.529,0,0,0,.646-28.25a.5.5,0,0,0,0,.5A8.529,8.529,0,0,0,8-23.5a8.529,8.529,0,0,0,7.354-4.25A.5.5,0,0,0,15.354-28.25ZM8-24a4,4,0,0,1-4-4,4,4,0,0,1,4-4,4,4,0,0,1,4,4A4,4,0,0,1,8-24Z"/><path class="c" d="M9.5-28A1.5,1.5,0,0,1,8-29.5a1.5,1.5,0,0,1,.869-1.357A2.979,2.979,0,0,0,8-31a3,3,0,0,0-3,3,3,3,0,0,0,3,3,3,3,0,0,0,3-3,2.979,2.979,0,0,0-.143-.869A1.5,1.5,0,0,1,9.5-28Z"/></g></svg>