<svg xmlns="http://www.w3.org/2000/svg" xmlns:xlink="http://www.w3.org/1999/xlink" width="16" height="16" viewBox="0 0 16 16"><defs><style>.a,.d{fill:none;}.b{clip-path:url(#a);}.c{fill:#111;}.d{stroke:#111;stroke-linecap:round;stroke-miterlimit:10;stroke-width:1.5px;}</style><clipPath id="a"><rect class="a" width="16" height="16" transform="translate(0 -36)"/></clipPath></defs><g class="b" transform="translate(0 36)"><path class="c" d="M5.879,5.879a3,3,0,0,0,4.242,4.242Z" transform="translate(0 -36)"/><g transform="translate(0 -36)"><path class="c" d="M6.661,4.247A3.942,3.942,0,0,1,8,4a4,4,0,0,1,4,4,3.942,3.942,0,0,1-.247,1.339l1.4,1.405a8.512,8.512,0,0,0,2.2-2.494.5.5,0,0,0,0-.5A8.529,8.529,0,0,0,8,3.5a8.371,8.371,0,0,0-1.861.225Z"/><path class="c" d="M10.6,11.016A3.981,3.981,0,0,1,4.984,5.4l-.911-.911A8.525,8.525,0,0,0,.646,7.75a.5.5,0,0,0,0,.5A8.529,8.529,0,0,0,8,12.5a8.444,8.444,0,0,0,3.373-.713Z"/></g><line class="d" x2="12" y2="12" transform="translate(2 -34)"/></g></svg>