<svg xmlns="http://www.w3.org/2000/svg" xmlns:xlink="http://www.w3.org/1999/xlink" width="40" height="40" viewBox="0 0 40 40"><defs><style>.a{fill:none;}.b{clip-path:url(#a);}.c{fill:#2fbc65;}</style><clipPath id="a"><rect class="a" width="40" height="40"/></clipPath></defs><g class="b"><path class="c" d="M6021,5825a17,17,0,1,1,12.021-4.979A16.885,16.885,0,0,1,6021,5825Zm-8-17.908a2,2,0,0,0-1.451,3.375l5.6,5.908a2.005,2.005,0,0,0,1.452.625c.057,0,.118,0,.167-.006a2,2,0,0,0,1.494-.879l9.4-14a2,2,0,1,0-3.32-2.229l-8.008,11.924-3.879-4.093A1.981,1.981,0,0,0,6013,5807.092Z" transform="translate(-6001 -5788)"/></g></svg>