<svg xmlns="http://www.w3.org/2000/svg" xmlns:xlink="http://www.w3.org/1999/xlink" width="16" height="16" viewBox="0 0 16 16"><defs><style>.a{fill:#777;}.b{clip-path:url(#a);}</style><clipPath id="a"><rect class="a" width="16" height="16" transform="translate(5 -18)"/></clipPath></defs><g class="b" transform="translate(-5 18)"><path class="a" d="M19.01-12.475a1,1,0,0,0,.25-1,1,1,0,0,0-.76-.691l-1.035-.207-.095-.1L17.163-15.5a1,1,0,0,0-.691-.761,1,1,0,0,0-.29-.043,1,1,0,0,0-.707.293l-.2.2A6.227,6.227,0,0,0,13-16.25,6.25,6.25,0,0,0,6.75-10,6.25,6.25,0,0,0,13-3.75,6.25,6.25,0,0,0,19.25-10a6.231,6.231,0,0,0-.435-2.279ZM13-6a4,4,0,0,1-4-4,4,4,0,0,1,4-4,3.942,3.942,0,0,1,.422.043l-.068.068a1,1,0,0,0-.274.9c-.027,0-.053-.008-.08-.008a3,3,0,0,0-3,3,3,3,0,0,0,3,3,3,3,0,0,0,3-3c0-.027-.007-.052-.008-.079a1.019,1.019,0,0,0,.19.018,1,1,0,0,0,.707-.293l.068-.068A3.942,3.942,0,0,1,17-10,4,4,0,0,1,13-6Zm3.182-5.061L15-11.3l-1.649,1.65A.5.5,0,0,1,13-9.5a.5.5,0,0,1-.354-.146.5.5,0,0,1,0-.708L14.3-12l-.235-1.179L16.182-15.3l.354,1.767,1.767.354Z"/></g></svg>