<svg xmlns="http://www.w3.org/2000/svg" xmlns:xlink="http://www.w3.org/1999/xlink" width="16" height="16" viewBox="0 0 16 16"><defs><style>.a{fill:none;}.b{clip-path:url(#a);}.c{fill:#6a88ff;}</style><clipPath id="a"><rect class="a" width="16" height="16" transform="translate(72 0)"/></clipPath></defs><g class="b" transform="translate(-72 0)"><path class="c" d="M81.667,4.5h0L80,3.833,78.333,4.5,80,5.167Z"/><path class="c" d="M81.667,5.833,80,5.167l-1.667.666h0V8.167L80,8.833l1.667-.666V5.833Z"/><path class="c" d="M80,1.961l-5.5,2.2v7.677l5.5,2.2,5.5-2.2V4.162Zm5,7.206-.5.2h0l-1.167.466v2.334h0l-1.666.666h0V10.5L80,11.167,78.333,10.5v2.333h0l-1.666-.666V9.834h0l-.347-.138-.82-.328h0l-.5-.2V6.833l1.32.529.347.138V5.167h0L78.333,4.5l-.993-.4h0l-.673-.27,1.666-.666L80,3.833l1.667-.666,1.666.666-.673.27h0l-.993.4,1.666.667h0V7.5L85,6.833Z"/><path class="c" d="M81.667,8.167V10.5l1.666-.667V7.5Z"/><path class="c" d="M76.667,7.5V9.833l.833.334.833.333V8.167Z"/></g></svg>