<svg xmlns="http://www.w3.org/2000/svg" xmlns:xlink="http://www.w3.org/1999/xlink" width="16" height="16" viewBox="0 0 16 16"><defs><style>.a{fill:#555;}.b{clip-path:url(#a);}</style><clipPath id="a"><rect class="a" width="16" height="16" transform="translate(112 1)"/></clipPath></defs><g class="b" transform="translate(-112 -1)"><path class="a" d="M-1566-1656.5a.483.483,0,0,1-.191-.038.5.5,0,0,1-.31-.462v-2h-1a.5.5,0,0,1-.5-.5v-7a.5.5,0,0,1,.5-.5h9a.5.5,0,0,1,.5.5v7a.5.5,0,0,1-.5.5h-4.793l-2.353,2.354A.5.5,0,0,1-1566-1656.5Zm3-7.25a.5.5,0,0,0-.5.5v2a.5.5,0,0,0,.5.5.5.5,0,0,0,.5-.5v-2A.5.5,0,0,0-1563-1663.75Zm0-1.75a.5.5,0,0,0-.5.5.5.5,0,0,0,.5.5.5.5,0,0,0,.5-.5A.5.5,0,0,0-1563-1665.5Z" transform="translate(1683 1671)"/></g></svg>