<svg xmlns="http://www.w3.org/2000/svg" xmlns:xlink="http://www.w3.org/1999/xlink" width="15.999" height="16" viewBox="0 0 15.999 16"><defs><style>.a{fill:#fff;}.b{clip-path:url(#a);}</style><clipPath id="a"><rect class="a" width="15.999" height="16" transform="translate(32)"/></clipPath></defs><g class="b" transform="translate(-32)"><path class="a" d="M40,3.5A4.5,4.5,0,1,0,44.5,8,4.5,4.5,0,0,0,40,3.5M40,9a1,1,0,1,1,1-1,1,1,0,0,1-1,1"/><path class="a" d="M46.91,5.083A7.526,7.526,0,0,0,45.3,2.7V6.2l.7-.7a6.493,6.493,0,0,1-.01,5.026A6.5,6.5,0,1,1,40,1.5V.5a7.5,7.5,0,0,0-2.916,14.409A7.5,7.5,0,0,0,46.91,5.083"/></g></svg>