<svg xmlns="http://www.w3.org/2000/svg" width="40" height="40" viewBox="0 0 40 40"><defs><style>.a{fill:#ff0;stroke:rgba(0,0,0,0);stroke-miterlimit:10;}.b{fill:none;}</style></defs><path class="a" d="M6216.007,5823.235h-28.014a3.987,3.987,0,0,1-3.454-5.981l14.006-24.261a3.987,3.987,0,0,1,6.907,0l14.006,24.261a3.986,3.986,0,0,1-3.452,5.981ZM6202,5815a2,2,0,1,0,2,2A2,2,0,0,0,6202,5815Zm0-16a2,2,0,0,0-2,2v10a2,2,0,1,0,4,0v-10A2,2,0,0,0,6202,5799Z" transform="translate(-6182 -5788)"/><rect class="b" width="40" height="40"/></svg>