<svg xmlns="http://www.w3.org/2000/svg" width="48" height="80" viewBox="0 0 48 80"><defs><style>.a{fill:#87f;}.a,.b{stroke:rgba(0,0,0,0);}.a,.b,.d,.e,.f{stroke-miterlimit:10;}.b{fill:#6a88ff;}.c,.d,.e,.f{fill:none;}.d{stroke:#555;stroke-width:6px;}.e,.f{stroke:#333;stroke-linecap:round;}.e{stroke-width:2px;}.f{stroke-width:4px;}.g{stroke:none;}</style></defs><path class="a" d="M18,0h0a0,0,0,0,1,0,0V34a0,0,0,0,1,0,0H0a0,0,0,0,1,0,0V18A18,18,0,0,1,18,0Z" transform="translate(6 6)"/><path class="b" d="M0,0H18a0,0,0,0,1,0,0V34a0,0,0,0,1,0,0h0A18,18,0,0,1,0,16V0A0,0,0,0,1,0,0Z" transform="translate(42.001 40) rotate(180)"/><path class="c" d="M0,0H0A18,18,0,0,1,18,18V34a0,0,0,0,1,0,0H0a0,0,0,0,1,0,0V0A0,0,0,0,1,0,0Z" transform="translate(24 6)"/><line class="d" y2="38.182" transform="translate(24 1.818)"/><line class="e" y2="38.182" transform="translate(24 1.818)"/><g class="f"><rect class="g" width="48" height="80" rx="24"/><rect class="c" x="2" y="2" width="44" height="76" rx="22"/></g></svg>