<svg xmlns="http://www.w3.org/2000/svg" xmlns:xlink="http://www.w3.org/1999/xlink" width="24" height="40" viewBox="0 0 24 40"><defs><style>.a{fill:#fff;stroke:#707070;}.b{clip-path:url(#a);}.c{fill:url(#b);}</style><clipPath id="a"><rect class="a" width="24" height="40"/></clipPath><linearGradient id="b" y1="0.206" x2="1" y2="0.797" gradientUnits="objectBoundingBox"><stop offset="0" stop-color="#ff1aa8"/><stop offset="1" stop-color="#6a88ff"/></linearGradient></defs><g class="b"><path class="c" d="M313.439,115.579a.24.24,0,0,0-.12.032l-1.439.83a.4.4,0,0,0-.2.347v20.323a.4.4,0,0,1-.2.347l-9.6,5.544a.4.4,0,0,0-.2.347v1.66a.24.24,0,0,0,.361.209l11.439-6.6a.4.4,0,0,0,.2-.347V115.819a.241.241,0,0,0-.24-.24h0m-11.705,17.805a.4.4,0,0,1-.054-.2V122.561a.4.4,0,0,1,.2-.347l1.2-.693a.4.4,0,0,1,.6.347v10.622a.4.4,0,0,1-.2.347l-1.2.692a.4.4,0,0,1-.547-.146m0,4.619a.4.4,0,0,1-.054-.2v-1.385a.4.4,0,0,1,.2-.347l3.6-2.079a.4.4,0,0,0,.2-.347V120.251a.4.4,0,0,1,.2-.347l1.2-.693a.4.4,0,0,1,.6.347V134.8a.4.4,0,0,1-.2.347l-5.2,3a.4.4,0,0,1-.547-.146m9.706-23.58a.241.241,0,0,0-.12.032h0l-11.439,6.6a.4.4,0,0,0-.2.346v22.447a.24.24,0,0,0,.36.208l1.439-.83a.4.4,0,0,0,.2-.346v-1.847a.4.4,0,0,1,.2-.347l7.6-4.386a.4.4,0,0,0,.2-.347V117.942a.4.4,0,0,1,.2-.346l1.6-.922a.4.4,0,0,0,.2-.347v-1.662a.24.24,0,0,0-.24-.24h0M307.664,112a.4.4,0,0,0-.186.054l-11.6,6.7a.4.4,0,0,0-.2.347v22.632a.4.4,0,0,0,.2.347l1.439.831a.24.24,0,0,0,.36-.208V120.251a.4.4,0,0,1,.2-.347l11.44-6.6a.24.24,0,0,0,0-.416l-1.439-.831a.4.4,0,0,0-.186-.054Z" transform="translate(-292.679 -108.6)"/></g></svg>